<?xml version="1.0" encoding="UTF-8" standalone="no"?>
<!-- Created with Inkscape (http://www.inkscape.org/) -->

<svg
   xmlns:dc="http://purl.org/dc/elements/1.1/"
   xmlns:cc="http://creativecommons.org/ns#"
   xmlns:rdf="http://www.w3.org/1999/02/22-rdf-syntax-ns#"
   xmlns:svg="http://www.w3.org/2000/svg"
   xmlns="http://www.w3.org/2000/svg"
   xmlns:sodipodi="http://sodipodi.sourceforge.net/DTD/sodipodi-0.dtd"
   xmlns:inkscape="http://www.inkscape.org/namespaces/inkscape"
   width="1052.3622"
   height="744.09448"
   id="svg2"
   version="1.1"
   inkscape:version="0.48.4 r9943 custom"
   sodipodi:docname="zweigraf_logo_stencil.svg"
   inkscape:export-filename="/Users/zweigraf/Pictures/zweigraf/zweigraf_logo.png"
   inkscape:export-xdpi="90"
   inkscape:export-ydpi="90">
  <defs
     id="defs4" />
  <sodipodi:namedview
     id="base"
     pagecolor="#ffffff"
     bordercolor="#666666"
     borderopacity="1.0"
     inkscape:pageopacity="0.0"
     inkscape:pageshadow="2"
     inkscape:zoom="0.50383782"
     inkscape:cx="232.92528"
     inkscape:cy="379.65374"
     inkscape:document-units="px"
     inkscape:current-layer="layer1"
     showgrid="false"
     inkscape:window-width="1231"
     inkscape:window-height="717"
     inkscape:window-x="49"
     inkscape:window-y="23"
     inkscape:window-maximized="0" />
  <metadata
     id="metadata7">
    <rdf:RDF>
      <cc:Work
         rdf:about="">
        <dc:format>image/svg+xml</dc:format>
        <dc:type
           rdf:resource="http://purl.org/dc/dcmitype/StillImage" />
        <dc:title></dc:title>
      </cc:Work>
    </rdf:RDF>
  </metadata>
  <g
     inkscape:label="Ebene 1"
     inkscape:groupmode="layer"
     id="layer1"
     transform="translate(0,-308.26769)">
    <path
       sodipodi:type="star"
       style="fill:none;stroke:#000000;stroke-width:7.29336739;stroke-miterlimit:4;stroke-opacity:1;stroke-dasharray:none"
       id="path2991"
       sodipodi:sides="6"
       sodipodi:cx="-220.61797"
       sodipodi:cy="163.50468"
       sodipodi:r1="99.462242"
       sodipodi:r2="49.731121"
       sodipodi:arg1="0.6129974"
       sodipodi:arg2="1.1365962"
       inkscape:flatsided="true"
       inkscape:rounded="0"
       inkscape:randomized="0"
       d="m -139.26509,220.72747 -90.23282,41.84226 -81.35288,-57.22278 8.87995,-99.06505 90.23282,-41.842266 81.35288,57.222786 z"
       transform="matrix(2.7310626,-0.24709095,0.24709095,2.7310626,857.52287,179.2607)"
       inkscape:export-filename="/Users/zweigraf/Desktop/iphonecase_blue.png"
       inkscape:export-xdpi="480.38867"
       inkscape:export-ydpi="480.38867" />
    <path
       inkscape:connector-curvature="0"
       id="path3000"
       style="font-size:202.98425293px;font-style:normal;font-weight:normal;line-height:125%;letter-spacing:0px;word-spacing:0px;fill:#000000;fill-opacity:1;stroke:none;font-family:Sans;-inkscape-font-specification:Klavika Med Caps Semi-Bold"
       d="m 173.01025,645.88942 0,-18.47157 -80.990713,0 0,19.89246 51.558003,0 -51.963972,67.18779 0,18.47157 82.208622,0 0,-19.89246 -52.57292,0 51.76098,-67.18779" />
    <path
       inkscape:connector-curvature="0"
       id="path3002"
       style="font-size:202.98425293px;font-style:normal;font-weight:normal;line-height:125%;letter-spacing:0px;word-spacing:0px;fill:#000000;fill-opacity:1;stroke:none;font-family:Sans;-inkscape-font-specification:Klavika Med Caps Semi-Bold"
       d="m 284.66428,627.41785 -28.01183,0 -21.11036,75.10418 -20.50141,-75.10418 -24.15513,0 29.6357,105.55182 30.04167,0 20.09544,-77.74297 20.09544,77.74297 30.04167,0 29.6357,-105.55182 -24.15512,0 -20.50141,75.10418 -21.11036,-75.10418" />
    <path
       inkscape:connector-curvature="0"
       id="path3004"
       style="font-size:202.98425293px;font-style:normal;font-weight:normal;line-height:125%;letter-spacing:0px;word-spacing:0px;fill:#000000;fill-opacity:1;stroke:none;font-family:Sans;-inkscape-font-specification:Klavika Med Caps Semi-Bold"
       d="m 370.76447,732.96967 74.08926,0 0,-20.7044 -48.91921,0 0,-22.73423 45.26549,0 0,-20.90738 -45.26549,0 0,-20.50141 48.91921,0 0,-20.7044 -74.08926,0 0,105.55182" />
    <path
       inkscape:connector-curvature="0"
       id="path3006"
       style="font-size:202.98425293px;font-style:normal;font-weight:normal;line-height:125%;letter-spacing:0px;word-spacing:0px;fill:#000000;fill-opacity:1;stroke:none;font-family:Sans;-inkscape-font-specification:Klavika Med Caps Semi-Bold"
       d="m 499.63093,627.41785 -25.17005,0 0,105.55182 25.17005,0 0,-105.55182" />
    <path
       inkscape:connector-curvature="0"
       id="path3008"
       style="font-size:202.98425293px;font-style:italic;font-variant:normal;font-weight:600;font-stretch:normal;text-align:start;line-height:125%;letter-spacing:0px;word-spacing:0px;writing-mode:lr-tb;text-anchor:start;fill:#000000;fill-opacity:1;stroke:none;font-family:Klavika Med Caps;-inkscape-font-specification:Klavika Med Caps Semi-Bold Italic"
       d="m 605.96614,734.99951 c 14.00589,0 30.44764,-1.82686 42.01774,-5.68356 l 8.32235,-46.07743 -22.93722,0 -5.48058,29.83869 c -6.2925,1.42089 -13.80293,1.82686 -18.47156,1.82686 -12.58501,0 -15.62979,-3.24776 -15.62979,-9.33728 0,-1.42089 0.20298,-2.6388 0.60895,-4.87162 l 7.30744,-41.2058 c 1.82685,-10.55517 6.69849,-13.39696 20.09544,-13.39696 9.13428,0 22.93723,1.42089 34.50732,3.65371 l 4.05969,-18.67455 c -11.16413,-3.65371 -25.57603,-5.68356 -37.55209,-5.68356 -30.24463,0 -41.40879,7.10447 -45.67146,31.66554 l -7.91638,44.85952 c -0.40597,2.23283 -0.81194,5.2776 -0.81194,7.71341 0,16.23872 10.75819,25.37303 37.55209,25.37303" />
    <path
       inkscape:connector-curvature="0"
       id="path3010"
       style="font-size:202.98425293px;font-style:italic;font-variant:normal;font-weight:600;font-stretch:normal;text-align:start;line-height:125%;letter-spacing:0px;word-spacing:0px;writing-mode:lr-tb;text-anchor:start;fill:#000000;fill-opacity:1;stroke:none;font-family:Klavika Med Caps;-inkscape-font-specification:Klavika Med Caps Semi-Bold Italic"
       d="m 746.62785,732.96967 26.59094,0 -17.45664,-35.11628 c 9.54025,-4.26267 15.83277,-10.96116 18.26858,-24.76408 l 2.63879,-15.02083 c 0.40597,-2.23283 0.81194,-5.2776 0.81194,-7.71341 0,-13.80291 -8.52536,-22.93722 -32.47748,-22.93722 l -49.12219,0 -18.67455,105.55182 24.76408,0 5.48057,-30.85361 23.74916,0 15.4268,30.85361 m 3.24775,-60.89528 c -1.2179,6.90146 -4.46566,10.3522 -15.02083,10.3522 l -23.95214,0 6.08952,-34.91329 24.15513,0 c 8.52533,0 11.5701,1.82686 11.5701,6.90146 0,1.01492 -0.20298,2.43581 -0.40597,3.65372 l -2.43581,14.00591" />
    <path
       inkscape:connector-curvature="0"
       id="path3012"
       style="font-size:202.98425293px;font-style:italic;font-variant:normal;font-weight:600;font-stretch:normal;text-align:start;line-height:125%;letter-spacing:0px;word-spacing:0px;writing-mode:lr-tb;text-anchor:start;fill:#000000;fill-opacity:1;stroke:none;font-family:Klavika Med Caps;-inkscape-font-specification:Klavika Med Caps Semi-Bold Italic"
       d="m 864.77104,732.96967 23.95214,0 -17.45664,-105.55182 -31.66554,0 -52.97889,105.55182 24.76407,0 9.1343,-18.87754 41.40878,0 2.84178,18.87754 m -11.97607,-86.87726 6.90147,48.71622 -29.83869,0 22.93722,-48.71622" />
    <path
       inkscape:connector-curvature="0"
       id="path3014"
       style="font-size:202.98425293px;font-style:italic;font-variant:normal;font-weight:600;font-stretch:normal;text-align:start;line-height:125%;letter-spacing:0px;word-spacing:0px;writing-mode:lr-tb;text-anchor:start;fill:#000000;fill-opacity:1;stroke:none;font-family:Klavika Med Caps;-inkscape-font-specification:Klavika Med Caps Semi-Bold Italic"
       d="m 950.50338,647.5133 49.32518,0 3.45074,-20.09545 -73.88628,0 -18.67455,105.55182 24.76408,0 6.90146,-39.58193 45.67146,0 3.45073,-20.09544 -45.46847,0 4.46565,-25.779" />
  </g>
</svg>
